<svg width="40" height="40" viewBox="0 0 40 40" fill="none" xmlns="http://www.w3.org/2000/svg">
<path d="M17.3833 30.6165C17.1333 30.6165 16.9 30.5499 16.6833 30.3999C16.3333 30.1665 16.1333 29.7832 16.1333 29.3665C16.1333 29.1165 16.1166 28.8499 16.0833 28.5832C15.9333 27.3999 15.4 26.3665 14.5 25.4665C13.6 24.5665 12.4833 23.9999 11.2833 23.8499C11.0833 23.8332 10.8 23.8165 10.5333 23.8332C10.1 23.8665 9.69997 23.6832 9.44997 23.3332C9.19997 22.9999 9.1333 22.5499 9.26664 22.1499C9.51664 21.4665 9.8833 20.8499 10.3166 20.3499L12.8833 17.1165C17.3 11.5999 26.25 4.96653 32.8 2.33319C34.1833 1.79986 35.6666 2.11653 36.6833 3.11653C37.7333 4.16653 38.05 5.66653 37.5 7.03319C34.8666 13.5999 28.25 22.5332 22.7333 26.9499L19.45 29.5832C18.8333 30.0332 18.3333 30.3165 17.8333 30.5165C17.7 30.5832 17.5333 30.6165 17.3833 30.6165ZM12.5666 21.5665C13.9666 21.9332 15.2166 22.6665 16.2666 23.7165C17.3166 24.7499 18.0166 25.9499 18.3666 27.2832L21.1833 25.0165C26.4166 20.8332 32.7 12.3499 35.1833 6.11653C35.4333 5.49986 35.0833 5.06653 34.9166 4.91653C34.8 4.79986 34.3666 4.43319 33.7 4.68319C27.5 7.18319 19.0166 13.4665 14.8166 18.6999L12.5666 21.5665Z" fill="#0080FF"/>
<path d="M6.79994 37.9167C5.54994 37.9167 4.34994 37.4167 3.44994 36.5167C2.41661 35.4834 1.91661 34.0501 2.08327 32.5834L2.53327 28.4834C2.96661 24.4167 6.29994 21.4001 10.4333 21.3167C10.7499 21.3001 11.1666 21.3168 11.5499 21.3501C13.3666 21.5834 14.9833 22.4001 16.2833 23.7001C17.5666 24.9834 18.3333 26.5168 18.5666 28.2334C18.6166 28.6001 18.6499 29.0001 18.6499 29.3501C18.6499 31.5501 17.7999 33.6001 16.2666 35.1501C14.9833 36.4167 13.3333 37.2001 11.4666 37.4334L7.34994 37.8834C7.16661 37.9001 6.98327 37.9167 6.79994 37.9167ZM10.7499 23.8334C10.6833 23.8334 10.5999 23.8334 10.5333 23.8334C8.01661 23.8834 5.34994 25.6001 5.01661 28.7667L4.56661 32.8667C4.48327 33.5667 4.73327 34.2501 5.21661 34.7501C5.69994 35.2334 6.38327 35.4834 7.06661 35.4001L11.1666 34.9501C12.4499 34.7834 13.5999 34.2501 14.4666 33.3834C15.5333 32.3168 16.1333 30.8834 16.1333 29.3501C16.1333 29.1001 16.1166 28.8334 16.0833 28.5667C15.9333 27.3834 15.3999 26.3501 14.4999 25.4501C13.5999 24.5501 12.4833 23.9834 11.2833 23.8334C11.1499 23.8334 10.9499 23.8334 10.7499 23.8334Z" fill="#0080FF"/>
<path d="M23.7334 25.3671C23.0501 25.3671 22.4834 24.8004 22.4834 24.1171C22.4834 20.4504 19.5001 17.4837 15.8501 17.4837C15.1668 17.4837 14.6001 16.9171 14.6001 16.2337C14.6001 15.5504 15.1501 14.9837 15.8334 14.9837C20.8668 14.9837 24.9668 19.0837 24.9668 24.1171C24.9834 24.8171 24.4168 25.3671 23.7334 25.3671Z" fill="#0080FF"/>
</svg>
