<svg width="50" height="50" viewBox="0 0 50 50" fill="none" xmlns="http://www.w3.org/2000/svg">
<path d="M43.7498 15.6665V27.9165C43.7498 28.6248 43.0623 29.1248 42.3957 28.9165L34.2082 26.3748C31.9582 25.6873 29.5415 26.2707 27.8957 27.9165C26.229 29.5832 25.6248 32.0207 26.3332 34.2707L28.854 42.3957C29.0623 43.0623 28.5623 43.7498 27.854 43.7498H15.6665C8.479 43.7498 4.1665 39.4582 4.1665 32.2498V15.6665C4.1665 8.45817 8.479 4.1665 15.6665 4.1665H32.2498C39.4373 4.1665 43.7498 8.45817 43.7498 15.6665Z" fill="#D9D9D9"/>
<path d="M45.7498 39.25L42.354 40.3958C41.4165 40.7083 40.6665 41.4375 40.354 42.3958L39.2082 45.7916C38.229 48.7291 34.104 48.6666 33.1873 45.7291L29.3332 33.3333C28.5832 30.875 30.854 28.5833 33.2915 29.3541L45.7082 33.2083C48.6248 34.125 48.6665 38.2708 45.7498 39.25Z" fill="#D9D9D9"/>
</svg>
